<svg width="40" height="40" viewBox="0 0 40 40" fill="none" xmlns="http://www.w3.org/2000/svg">
<path d="M28.6668 23.864L19.8907 18.7954L19.8872 18.7935L19.8833 18.7912L19.8864 18.7946L27.8622 27.8617L28.6668 23.864Z" fill="#29C7CA" style="fill:#29C7CA;fill:color(display-p3 0.1626 0.7801 0.7905);fill-opacity:1;"/>
<path d="M19.8872 18.7935L19.8907 18.7954L27.4655 20.211L26.9674 17.1657L19.8902 18.7896L19.8872 18.7935Z" fill="#29C7CA" style="fill:#29C7CA;fill:color(display-p3 0.1626 0.7801 0.7905);fill-opacity:1;"/>
<path d="M28.817 7.10335L24.8813 7.83965L19.8889 18.7899L19.8902 18.7896L28.817 7.10335Z" fill="#29C7CA" style="fill:#29C7CA;fill:color(display-p3 0.1626 0.7801 0.7905);fill-opacity:1;"/>
<path d="M19.8833 18.7912L18.2702 11.0418L15.686 10.6524L19.8833 18.7912Z" fill="#29C7CA" style="fill:#29C7CA;fill:color(display-p3 0.1626 0.7801 0.7905);fill-opacity:1;"/>
<path d="M8.06807 22.1991L19.8833 18.7912L6.2538 18.394L8.06807 22.1991Z" fill="#29C7CA" style="fill:#29C7CA;fill:color(display-p3 0.1626 0.7801 0.7905);fill-opacity:1;"/>
<path d="M19.8833 18.7912L16.0885 23.0692L16.2137 25.1471L19.8864 18.7946L19.8833 18.7912Z" fill="#29C7CA" style="fill:#29C7CA;fill:color(display-p3 0.1626 0.7801 0.7905);fill-opacity:1;"/>
<path d="M24.4047 29.558L18.9648 19.0596L18.9626 19.0555L18.9602 19.0508L18.961 19.0561L21.101 32.9814L24.4047 29.558Z" fill="#E6274E" style="fill:#E6274E;fill:color(display-p3 0.9020 0.1529 0.3059);fill-opacity:1;"/>
<path d="M18.9626 19.0555L18.9648 19.0596L25.5202 25.2123L26.9448 21.906L18.9679 19.0535L18.9626 19.0555Z" fill="#E6274E" style="fill:#E6274E;fill:color(display-p3 0.9020 0.1529 0.3059);fill-opacity:1;"/>
<path d="M35.0878 13.1785L30.7566 11.4283L18.9664 19.053L18.9679 19.0535L35.0878 13.1785Z" fill="#E6274E" style="fill:#E6274E;fill:color(display-p3 0.9020 0.1529 0.3059);fill-opacity:1;"/>
<path d="M18.9602 19.0508L22.2458 10.4201L19.9506 8.41287L18.9602 19.0508Z" fill="#E6274E" style="fill:#E6274E;fill:color(display-p3 0.9020 0.1529 0.3059);fill-opacity:1;"/>
<path d="M5.20499 14.9736L18.9602 19.0508L5.81362 10.0931L5.20499 14.9736Z" fill="#E6274E" style="fill:#E6274E;fill:color(display-p3 0.9020 0.1529 0.3059);fill-opacity:1;"/>
<path d="M18.9602 19.0508L12.5412 20.8702L11.3582 22.9913L18.961 19.0561L18.9602 19.0508Z" fill="#E6274E" style="fill:#E6274E;fill:color(display-p3 0.9020 0.1529 0.3059);fill-opacity:1;"/>
<path d="M16.2401 28.6975L19.8598 17.3645L19.8613 17.3601L19.8629 17.355L19.8597 17.3594L11.4832 28.8007L16.2401 28.6975Z" fill="#0BA02E" style="fill:#0BA02E;fill:color(display-p3 0.0422 0.6281 0.1807);fill-opacity:1;"/>
<path d="M19.8613 17.3601L19.8598 17.3645L20.1103 26.3887L23.4605 25.0396L19.8663 17.3625L19.8613 17.3601Z" fill="#0BA02E" style="fill:#0BA02E;fill:color(display-p3 0.0422 0.6281 0.1807);fill-opacity:1;"/>
<path d="M35.3909 24.579L33.5824 20.267L19.8657 17.361L19.8663 17.3625L35.3909 24.579Z" fill="#0BA02E" style="fill:#0BA02E;fill:color(display-p3 0.0422 0.6281 0.1807);fill-opacity:1;"/>
<path d="M19.8629 17.355L28.3031 13.5268L28.1111 10.4721L19.8629 17.355Z" fill="#0BA02E" style="fill:#0BA02E;fill:color(display-p3 0.0422 0.6281 0.1807);fill-opacity:1;"/>
<path d="M13.0678 4.7166L19.8629 17.355L16.9605 1.66797L13.0678 4.7166Z" fill="#0BA02E" style="fill:#0BA02E;fill:color(display-p3 0.0422 0.6281 0.1807);fill-opacity:1;"/>
<path d="M19.8629 17.355L14.05 14.1107L11.7112 14.7858L19.8597 17.3594L19.8629 17.355Z" fill="#0BA02E" style="fill:#0BA02E;fill:color(display-p3 0.0422 0.6281 0.1807);fill-opacity:1;"/>
<path d="M12.2584 24.7154L21.1329 16.6721L21.1364 16.669L21.1403 16.6654L21.1354 16.6676L8.07455 22.4397L12.2584 24.7154Z" fill="#D0DDDC" style="fill:#D0DDDC;fill:color(display-p3 0.8166 0.8651 0.8614);fill-opacity:1;"/>
<path d="M21.1364 16.669L21.1329 16.6721L16.7873 24.6345L20.3792 25.1287L21.1396 16.6736L21.1364 16.669Z" fill="#D0DDDC" style="fill:#D0DDDC;fill:color(display-p3 0.8166 0.8651 0.8614);fill-opacity:1;"/>
<path d="M30.9742 30.6609L31.5839 26.0164L21.1397 16.672L21.1396 16.6736L30.9742 30.6609Z" fill="#D0DDDC" style="fill:#D0DDDC;fill:color(display-p3 0.8166 0.8651 0.8614);fill-opacity:1;"/>
<path d="M21.1403 16.6654L30.4068 17.5373L31.7847 14.7886L21.1403 16.6654Z" fill="#D0DDDC" style="fill:#D0DDDC;fill:color(display-p3 0.8166 0.8651 0.8614);fill-opacity:1;"/>
<path d="M21.6293 2.30954L21.1403 16.6654L26.5519 1.59732L21.6293 2.30954Z" fill="#D0DDDC" style="fill:#D0DDDC;fill:color(display-p3 0.8166 0.8651 0.8614);fill-opacity:1;"/>
<path d="M21.1403 16.6654L17.7321 10.9571L15.3594 10.3805L21.1354 16.6676L21.1403 16.6654Z" fill="#D0DDDC" style="fill:#D0DDDC;fill:color(display-p3 0.8166 0.8651 0.8614);fill-opacity:1;"/>
<path d="M19.7128 29.6897L20.5132 18.7748L20.5135 18.7705L20.5139 18.7657L20.5118 18.7701L15.1431 30.6113L19.7128 29.6897Z" fill="#081AB9" style="fill:#081AB9;fill:color(display-p3 0.0314 0.1020 0.7255);fill-opacity:1;"/>
<path d="M20.5135 18.7705L20.5132 18.7748L22.9014 26.9209L25.8162 25.1135L20.519 18.7718L20.5135 18.7705Z" fill="#081AB9" style="fill:#081AB9;fill:color(display-p3 0.0314 0.1020 0.7255);fill-opacity:1;"/>
<path d="M37.229 22.6192L34.4567 19.0207L20.518 18.7706L20.519 18.7718L37.229 22.6192Z" fill="#081AB9" style="fill:#081AB9;fill:color(display-p3 0.0314 0.1020 0.7255);fill-opacity:1;"/>
<path d="M20.5139 18.7657L27.7549 13.8226L26.8428 11.0837L20.5139 18.7657Z" fill="#081AB9" style="fill:#081AB9;fill:color(display-p3 0.0314 0.1020 0.7255);fill-opacity:1;"/>
<path d="M15.1431 12.3059L20.5139 18.7657L13.9797 5.03429L15.1431 12.3059Z" fill="#081AB9" style="fill:#081AB9;fill:color(display-p3 0.0314 0.1020 0.7255);fill-opacity:1;"/>
<path d="M20.5139 18.7657L14.1281 16.8329L12.0299 17.8526L20.5118 18.7701L20.5139 18.7657Z" fill="#081AB9" style="fill:#081AB9;fill:color(display-p3 0.0314 0.1020 0.7255);fill-opacity:1;"/>
<path d="M10.2252 23.5043L20.7236 18.0644L20.7277 18.0623L20.7324 18.0598L20.7271 18.0606L6.80178 20.2006L10.2252 23.5043Z" fill="#F0D854" style="fill:#F0D854;fill:color(display-p3 0.9396 0.8479 0.3281);fill-opacity:1;"/>
<path d="M20.7277 18.0623L20.7236 18.0644L14.5709 24.6198L17.8772 26.0444L20.7297 18.0675L20.7277 18.0623Z" fill="#F0D854" style="fill:#F0D854;fill:color(display-p3 0.9396 0.8479 0.3281);fill-opacity:1;"/>
<path d="M26.6047 34.1874L28.3549 29.8562L20.7302 18.0661L20.7297 18.0675L26.6047 34.1874Z" fill="#F0D854" style="fill:#F0D854;fill:color(display-p3 0.9396 0.8479 0.3281);fill-opacity:1;"/>
<path d="M20.7324 18.0598L29.3631 21.3454L31.3703 19.0502L20.7324 18.0598Z" fill="#F0D854" style="fill:#F0D854;fill:color(display-p3 0.9396 0.8479 0.3281);fill-opacity:1;"/>
<path d="M24.8096 4.3046L20.7324 18.0598L29.6901 4.91323L24.8096 4.3046Z" fill="#F0D854" style="fill:#F0D854;fill:color(display-p3 0.9396 0.8479 0.3281);fill-opacity:1;"/>
<path d="M20.7324 18.0598L18.913 11.6408L16.7919 10.4578L20.7271 18.0606L20.7324 18.0598Z" fill="#F0D854" style="fill:#F0D854;fill:color(display-p3 0.9396 0.8479 0.3281);fill-opacity:1;"/>
<path d="M11.7086 14.6709L20.6375 17.9892L20.6419 17.9906L20.6469 17.9921L20.6426 17.989L9.45723 10.1723L11.7086 14.6709Z" fill="#0085EA" style="fill:#0085EA;fill:color(display-p3 0.0000 0.5208 0.9191);fill-opacity:1;"/>
<path d="M20.6419 17.9906L20.6375 17.9892L11.7086 18.8315L12.9911 22.1876L20.6395 17.9957L20.6419 17.9906Z" fill="#0085EA" style="fill:#0085EA;fill:color(display-p3 0.0000 0.5208 0.9191);fill-opacity:1;"/>
<path d="M13.2587 34.2076L17.5557 32.3163L20.6409 17.995L20.6395 17.9957L13.2587 34.2076Z" fill="#0085EA" style="fill:#0085EA;fill:color(display-p3 0.0000 0.5208 0.9191);fill-opacity:1;"/>
<path d="M20.6469 17.9921L24.311 26.8877L27.3379 26.6458L20.6469 17.9921Z" fill="#0085EA" style="fill:#0085EA;fill:color(display-p3 0.0000 0.5208 0.9191);fill-opacity:1;"/>
<path d="M33.2728 11.3895L20.6469 17.9921L36.2291 15.2657L33.2728 11.3895Z" fill="#0085EA" style="fill:#0085EA;fill:color(display-p3 0.0000 0.5208 0.9191);fill-opacity:1;"/>
<path d="M20.6469 17.9921L23.9582 12.528L23.3269 10.1809L20.6426 17.989L20.6469 17.9921Z" fill="#0085EA" style="fill:#0085EA;fill:color(display-p3 0.0000 0.5208 0.9191);fill-opacity:1;"/>
</svg>
