<svg width="153" height="40" viewBox="0 0 153 40" fill="none" xmlns="http://www.w3.org/2000/svg">
<path d="M42 23.7869V11.3552H46.6043C47.6274 11.3552 48.474 11.5269 49.1439 11.8702C49.8139 12.2017 50.3133 12.6516 50.6421 13.2199C50.971 13.7883 51.1355 14.4394 51.1355 15.1735C51.1355 15.8602 50.9771 16.4936 50.6604 17.0738C50.3437 17.6421 49.8504 18.1038 49.1805 18.459C48.5105 18.8024 47.6518 18.974 46.6043 18.974H44.1925V23.7869H42ZM44.1925 17.2336H46.4764C47.3412 17.2336 47.9624 17.0501 48.34 16.6831C48.7176 16.3042 48.9064 15.801 48.9064 15.1735C48.9064 14.5223 48.7176 14.0132 48.34 13.6462C47.9624 13.2791 47.3412 13.0956 46.4764 13.0956H44.1925V17.2336Z" fill="black" style="fill:black;fill-opacity:1;"/>
<path d="M56.2357 24C55.3222 24 54.5183 23.8106 53.824 23.4317C53.1297 23.041 52.5877 22.4964 52.1979 21.7978C51.8081 21.0993 51.6132 20.2942 51.6132 19.3825C51.6132 18.4353 51.802 17.6066 52.1796 16.8962C52.5694 16.1858 53.1114 15.6293 53.8057 15.2268C54.5122 14.8242 55.3283 14.623 56.254 14.623C57.1554 14.623 57.941 14.8183 58.611 15.209C59.2809 15.5997 59.7986 16.1266 60.164 16.7896C60.5294 17.4408 60.7121 18.1749 60.7121 18.9918C60.7121 19.1102 60.7121 19.2404 60.7121 19.3825C60.7121 19.5246 60.6999 19.6726 60.6756 19.8265H53.1845V18.459H58.5013C58.477 17.8078 58.2516 17.2987 57.8253 16.9317C57.399 16.5528 56.8691 16.3634 56.2357 16.3634C55.7851 16.3634 55.3709 16.464 54.9933 16.6653C54.6157 16.8666 54.3173 17.1685 54.098 17.571C53.8788 17.9617 53.7692 18.459 53.7692 19.0628V19.5779C53.7692 20.1343 53.8727 20.6138 54.0798 21.0164C54.299 21.4189 54.5914 21.7268 54.9568 21.9399C55.3344 22.1412 55.7546 22.2418 56.2175 22.2418C56.7291 22.2418 57.1493 22.1352 57.4782 21.9221C57.8192 21.709 58.0689 21.4249 58.2273 21.0697H60.4563C60.2858 21.6261 60.0056 22.1293 59.6159 22.5792C59.2261 23.0173 58.7449 23.3666 58.1725 23.627C57.6 23.8757 56.9544 24 56.2357 24Z" fill="black" style="fill:black;fill-opacity:1;"/>
<path d="M62.1883 23.7869V14.8361H64.1433L64.3443 16.5055C64.5636 16.1148 64.8376 15.7832 65.1665 15.5109C65.4954 15.2268 65.8791 15.0077 66.3176 14.8538C66.7683 14.6999 67.2616 14.623 67.7975 14.623V16.8784H67.0301C66.6647 16.8784 66.3176 16.9258 65.9887 17.0205C65.6598 17.1034 65.3736 17.2454 65.13 17.4467C64.8985 17.6362 64.7158 17.9025 64.5818 18.2459C64.4478 18.5774 64.3809 18.9977 64.3809 19.5068V23.7869H62.1883Z" fill="black" style="fill:black;fill-opacity:1;"/>
<path d="M68.9022 23.7869V14.8361H70.8389L71.0216 16.0615C71.3139 15.6116 71.6976 15.2623 72.1727 15.0137C72.6599 14.7532 73.2141 14.623 73.8353 14.623C74.2982 14.623 74.7123 14.6821 75.0778 14.8005C75.4554 14.9189 75.7842 15.0965 76.0644 15.3333C76.3567 15.5701 76.5942 15.8661 76.7769 16.2213C77.118 15.724 77.5626 15.3333 78.1107 15.0492C78.6588 14.765 79.2557 14.623 79.9013 14.623C80.6686 14.623 81.3203 14.7769 81.8563 15.0847C82.3922 15.3807 82.8003 15.8247 83.0804 16.4167C83.3606 16.9968 83.5006 17.7131 83.5006 18.5656V23.7869H81.3264V18.7787C81.3264 18.0209 81.1681 17.4408 80.8514 17.0383C80.5347 16.6357 80.0657 16.4344 79.4445 16.4344C79.0182 16.4344 78.6406 16.5351 78.3117 16.7363C77.995 16.9376 77.7453 17.2336 77.5626 17.6243C77.3799 18.0032 77.2885 18.4709 77.2885 19.0273V23.7869H75.1143V18.7787C75.1143 18.0209 74.9559 17.4408 74.6393 17.0383C74.3226 16.6357 73.8475 16.4344 73.2141 16.4344C72.8122 16.4344 72.4467 16.5351 72.1179 16.7363C71.8012 16.9376 71.5515 17.2336 71.3688 17.6243C71.1861 18.0032 71.0947 18.4709 71.0947 19.0273V23.7869H68.9022Z" fill="black" style="fill:black;fill-opacity:1;"/>
<path d="M88.3384 24C87.5832 24 86.9559 23.8757 86.4565 23.627C85.9571 23.3784 85.5856 23.0469 85.342 22.6325C85.0984 22.2181 84.9766 21.7682 84.9766 21.2828C84.9766 20.7145 85.1228 20.2231 85.4151 19.8087C85.7196 19.3944 86.1642 19.0747 86.7489 18.8497C87.3335 18.6129 88.0522 18.4945 88.9048 18.4945H91.2252C91.2252 18.0209 91.1582 17.6302 91.0243 17.3224C90.8903 17.0027 90.6832 16.7659 90.403 16.612C90.1229 16.4581 89.7636 16.3811 89.3251 16.3811C88.8257 16.3811 88.3993 16.4936 88.0461 16.7186C87.6929 16.9317 87.4736 17.2632 87.3883 17.7131H85.2324C85.3055 17.0738 85.5247 16.5291 85.8901 16.0792C86.2555 15.6175 86.7367 15.2623 87.3335 15.0137C87.9426 14.7532 88.6064 14.623 89.3251 14.623C90.1899 14.623 90.9268 14.7709 91.5358 15.0669C92.1449 15.3511 92.6077 15.7655 92.9244 16.3101C93.2533 16.8429 93.4177 17.4882 93.4177 18.2459V23.7869H91.5541L91.3349 22.3484C91.2131 22.5852 91.0547 22.8042 90.8598 23.0055C90.6771 23.2067 90.4639 23.3843 90.2203 23.5383C89.9767 23.6803 89.6966 23.7928 89.3799 23.8757C89.0754 23.9586 88.7282 24 88.3384 24ZM88.8317 22.3128C89.185 22.3128 89.4956 22.2536 89.7636 22.1352C90.0437 22.005 90.2812 21.8274 90.4761 21.6025C90.6832 21.3657 90.8415 21.1052 90.9512 20.821C91.0608 20.5369 91.1339 20.235 91.1704 19.9153V19.8798H89.1423C88.716 19.8798 88.3628 19.9331 88.0826 20.0396C87.8025 20.1343 87.6015 20.2764 87.4797 20.4658C87.3579 20.6553 87.297 20.8743 87.297 21.123C87.297 21.3716 87.3579 21.5847 87.4797 21.7623C87.6015 21.9399 87.7781 22.076 88.0096 22.1708C88.241 22.2655 88.515 22.3128 88.8317 22.3128Z" fill="black" style="fill:black;fill-opacity:1;"/>
<path d="M96.9323 23.7869L94.2282 14.8361H96.4025L98.2844 22.1885L97.8824 22.1708L99.9836 14.8361H102.432L104.551 22.1708H104.149L106.031 14.8361H108.205L105.501 23.7869H103.236L100.988 16.2036H101.445L99.1979 23.7869H96.9323Z" fill="black" style="fill:black;fill-opacity:1;"/>
<path d="M113.215 24C112.301 24 111.497 23.8106 110.803 23.4317C110.108 23.041 109.566 22.4964 109.177 21.7978C108.787 21.0993 108.592 20.2942 108.592 19.3825C108.592 18.4353 108.781 17.6066 109.158 16.8962C109.548 16.1858 110.09 15.6293 110.785 15.2268C111.491 14.8242 112.307 14.623 113.233 14.623C114.134 14.623 114.92 14.8183 115.59 15.209C116.26 15.5997 116.777 16.1266 117.143 16.7896C117.508 17.4408 117.691 18.1749 117.691 18.9918C117.691 19.1102 117.691 19.2404 117.691 19.3825C117.691 19.5246 117.679 19.6726 117.654 19.8265H110.163V18.459H115.48C115.456 17.8078 115.23 17.2987 114.804 16.9317C114.378 16.5528 113.848 16.3634 113.215 16.3634C112.764 16.3634 112.35 16.464 111.972 16.6653C111.595 16.8666 111.296 17.1685 111.077 17.571C110.858 17.9617 110.748 18.459 110.748 19.0628V19.5779C110.748 20.1343 110.852 20.6138 111.059 21.0164C111.278 21.4189 111.57 21.7268 111.936 21.9399C112.313 22.1412 112.733 22.2418 113.196 22.2418C113.708 22.2418 114.128 22.1352 114.457 21.9221C114.798 21.709 115.048 21.4249 115.206 21.0697H117.435C117.265 21.6261 116.984 22.1293 116.595 22.5792C116.205 23.0173 115.724 23.3666 115.151 23.627C114.579 23.8757 113.933 24 113.215 24Z" fill="black" style="fill:black;fill-opacity:1;"/>
<path d="M124.429 24C123.942 24 123.503 23.9349 123.114 23.8046C122.724 23.6862 122.383 23.5205 122.09 23.3074C121.798 23.0824 121.555 22.8279 121.36 22.5437L121.122 23.7869H119.167V11H121.36V16.1503C121.652 15.7122 122.048 15.3511 122.547 15.0669C123.047 14.7709 123.668 14.623 124.411 14.623C125.276 14.623 126.037 14.8301 126.695 15.2445C127.365 15.6471 127.888 16.2036 128.266 16.9139C128.656 17.6125 128.851 18.4176 128.851 19.3292C128.851 20.2172 128.662 21.0164 128.284 21.7268C127.907 22.4372 127.383 22.9936 126.713 23.3962C126.055 23.7987 125.294 24 124.429 24ZM123.972 22.153C124.484 22.153 124.941 22.0346 125.343 21.7978C125.745 21.5492 126.055 21.2177 126.275 20.8033C126.506 20.377 126.622 19.8798 126.622 19.3115C126.622 18.755 126.506 18.2637 126.275 17.8374C126.055 17.4112 125.745 17.0797 125.343 16.8429C124.941 16.6061 124.484 16.4877 123.972 16.4877C123.449 16.4877 122.986 16.6061 122.584 16.8429C122.194 17.0797 121.883 17.4112 121.652 17.8374C121.433 18.2637 121.323 18.755 121.323 19.3115C121.323 19.8798 121.433 20.377 121.652 20.8033C121.883 21.2177 122.194 21.5492 122.584 21.7978C122.986 22.0346 123.449 22.153 123.972 22.153Z" fill="black" style="fill:black;fill-opacity:1;"/>
<path d="M136.332 24C135.102 24 134.012 23.7336 133.062 23.2008C132.124 22.6562 131.387 21.9044 130.851 20.9454C130.315 19.9745 130.047 18.8497 130.047 17.571C130.047 16.3042 130.315 15.1913 130.851 14.2322C131.387 13.2614 132.124 12.5036 133.062 11.959C134.012 11.4144 135.102 11.1421 136.332 11.1421C137.587 11.1421 138.689 11.4144 139.639 11.959C140.589 12.5036 141.326 13.2614 141.85 14.2322C142.374 15.1913 142.636 16.3042 142.636 17.571C142.636 18.8497 142.374 19.9745 141.85 20.9454C141.326 21.9044 140.589 22.6562 139.639 23.2008C138.689 23.7336 137.587 24 136.332 24ZM136.351 22.082C137.167 22.082 137.879 21.9044 138.488 21.5492C139.097 21.1821 139.566 20.6612 139.895 19.9863C140.224 19.3115 140.389 18.5064 140.389 17.571C140.389 16.6357 140.224 15.8306 139.895 15.1557C139.566 14.4809 139.097 13.9658 138.488 13.6107C137.879 13.2436 137.167 13.0601 136.351 13.0601C135.535 13.0601 134.822 13.2436 134.213 13.6107C133.604 13.9658 133.129 14.4809 132.788 15.1557C132.459 15.8306 132.295 16.6357 132.295 17.571C132.295 18.5064 132.459 19.3115 132.788 19.9863C133.129 20.6612 133.604 21.1821 134.213 21.5492C134.822 21.9044 135.535 22.082 136.351 22.082Z" fill="black" style="fill:black;fill-opacity:1;"/>
<path d="M148.524 24C147.598 24 146.776 23.8402 146.057 23.5205C145.338 23.2008 144.778 22.745 144.376 22.153C143.974 21.561 143.767 20.8566 143.755 20.0396H146.075C146.075 20.454 146.173 20.827 146.368 21.1585C146.575 21.4781 146.855 21.7327 147.208 21.9221C147.574 22.1116 148.012 22.2063 148.524 22.2063C148.962 22.2063 149.34 22.1412 149.656 22.0109C149.985 21.8689 150.235 21.6735 150.406 21.4249C150.588 21.1644 150.68 20.8625 150.68 20.5191C150.68 20.1284 150.582 19.8087 150.387 19.5601C150.205 19.2996 149.949 19.0806 149.62 18.903C149.291 18.7254 148.913 18.5715 148.487 18.4413C148.061 18.2992 147.61 18.1512 147.135 17.9973C146.124 17.6658 145.363 17.2454 144.851 16.7363C144.34 16.2154 144.084 15.5228 144.084 14.6585C144.084 13.9362 144.26 13.3147 144.614 12.7937C144.967 12.2728 145.46 11.8702 146.094 11.5861C146.739 11.2901 147.482 11.1421 148.323 11.1421C149.175 11.1421 149.918 11.2901 150.552 11.5861C151.197 11.8821 151.703 12.2964 152.068 12.8292C152.446 13.3502 152.641 13.9777 152.653 14.7117H150.314C150.302 14.4039 150.217 14.1198 150.058 13.8593C149.9 13.587 149.669 13.3679 149.364 13.2022C149.072 13.0246 148.712 12.9358 148.286 12.9358C147.921 12.924 147.592 12.9832 147.299 13.1134C147.019 13.2318 146.794 13.4094 146.623 13.6462C146.465 13.8711 146.386 14.1553 146.386 14.4986C146.386 14.8301 146.459 15.1084 146.605 15.3333C146.764 15.5464 146.989 15.73 147.281 15.8839C147.574 16.026 147.915 16.1621 148.304 16.2923C148.694 16.4226 149.12 16.5647 149.583 16.7186C150.217 16.9199 150.789 17.1685 151.301 17.4645C151.825 17.7486 152.239 18.1216 152.543 18.5833C152.848 19.0451 153 19.643 153 20.377C153 21.0164 152.829 21.6143 152.488 22.1708C152.147 22.7154 151.648 23.1594 150.99 23.5027C150.332 23.8342 149.51 24 148.524 24Z" fill="black" style="fill:black;fill-opacity:1;"/>
<path d="M28.6668 23.864L19.8907 18.7954L19.8872 18.7935L19.8833 18.7912L19.8864 18.7946L27.8622 27.8617L28.6668 23.864Z" fill="#29C7CA" style="fill:#29C7CA;fill:color(display-p3 0.1626 0.7801 0.7905);fill-opacity:1;"/>
<path d="M19.8872 18.7935L19.8907 18.7954L27.4655 20.211L26.9674 17.1657L19.8902 18.7896L19.8872 18.7935Z" fill="#29C7CA" style="fill:#29C7CA;fill:color(display-p3 0.1626 0.7801 0.7905);fill-opacity:1;"/>
<path d="M28.817 7.10335L24.8813 7.83965L19.8889 18.7899L19.8902 18.7896L28.817 7.10335Z" fill="#29C7CA" style="fill:#29C7CA;fill:color(display-p3 0.1626 0.7801 0.7905);fill-opacity:1;"/>
<path d="M19.8833 18.7912L18.2702 11.0418L15.686 10.6524L19.8833 18.7912Z" fill="#29C7CA" style="fill:#29C7CA;fill:color(display-p3 0.1626 0.7801 0.7905);fill-opacity:1;"/>
<path d="M8.06807 22.1991L19.8833 18.7912L6.2538 18.394L8.06807 22.1991Z" fill="#29C7CA" style="fill:#29C7CA;fill:color(display-p3 0.1626 0.7801 0.7905);fill-opacity:1;"/>
<path d="M19.8833 18.7912L16.0885 23.0692L16.2137 25.1471L19.8864 18.7946L19.8833 18.7912Z" fill="#29C7CA" style="fill:#29C7CA;fill:color(display-p3 0.1626 0.7801 0.7905);fill-opacity:1;"/>
<path d="M24.4047 29.558L18.9648 19.0596L18.9626 19.0555L18.9602 19.0508L18.961 19.0561L21.101 32.9814L24.4047 29.558Z" fill="#E6274E" style="fill:#E6274E;fill:color(display-p3 0.9020 0.1529 0.3059);fill-opacity:1;"/>
<path d="M18.9626 19.0555L18.9648 19.0596L25.5202 25.2123L26.9448 21.906L18.9679 19.0535L18.9626 19.0555Z" fill="#E6274E" style="fill:#E6274E;fill:color(display-p3 0.9020 0.1529 0.3059);fill-opacity:1;"/>
<path d="M35.0878 13.1785L30.7566 11.4283L18.9664 19.053L18.9679 19.0535L35.0878 13.1785Z" fill="#E6274E" style="fill:#E6274E;fill:color(display-p3 0.9020 0.1529 0.3059);fill-opacity:1;"/>
<path d="M18.9602 19.0508L22.2458 10.4201L19.9506 8.41287L18.9602 19.0508Z" fill="#E6274E" style="fill:#E6274E;fill:color(display-p3 0.9020 0.1529 0.3059);fill-opacity:1;"/>
<path d="M5.20499 14.9736L18.9602 19.0508L5.81362 10.0931L5.20499 14.9736Z" fill="#E6274E" style="fill:#E6274E;fill:color(display-p3 0.9020 0.1529 0.3059);fill-opacity:1;"/>
<path d="M18.9602 19.0508L12.5412 20.8702L11.3582 22.9913L18.961 19.0561L18.9602 19.0508Z" fill="#E6274E" style="fill:#E6274E;fill:color(display-p3 0.9020 0.1529 0.3059);fill-opacity:1;"/>
<path d="M16.2401 28.6975L19.8598 17.3645L19.8613 17.3601L19.8629 17.355L19.8597 17.3594L11.4832 28.8007L16.2401 28.6975Z" fill="#0BA02E" style="fill:#0BA02E;fill:color(display-p3 0.0422 0.6281 0.1807);fill-opacity:1;"/>
<path d="M19.8613 17.3601L19.8598 17.3645L20.1103 26.3887L23.4605 25.0396L19.8663 17.3625L19.8613 17.3601Z" fill="#0BA02E" style="fill:#0BA02E;fill:color(display-p3 0.0422 0.6281 0.1807);fill-opacity:1;"/>
<path d="M35.3909 24.579L33.5824 20.267L19.8657 17.361L19.8663 17.3625L35.3909 24.579Z" fill="#0BA02E" style="fill:#0BA02E;fill:color(display-p3 0.0422 0.6281 0.1807);fill-opacity:1;"/>
<path d="M19.8629 17.355L28.3031 13.5268L28.1111 10.4721L19.8629 17.355Z" fill="#0BA02E" style="fill:#0BA02E;fill:color(display-p3 0.0422 0.6281 0.1807);fill-opacity:1;"/>
<path d="M13.0678 4.7166L19.8629 17.355L16.9605 1.66797L13.0678 4.7166Z" fill="#0BA02E" style="fill:#0BA02E;fill:color(display-p3 0.0422 0.6281 0.1807);fill-opacity:1;"/>
<path d="M19.8629 17.355L14.05 14.1107L11.7112 14.7858L19.8597 17.3594L19.8629 17.355Z" fill="#0BA02E" style="fill:#0BA02E;fill:color(display-p3 0.0422 0.6281 0.1807);fill-opacity:1;"/>
<path d="M12.2584 24.7154L21.1329 16.6721L21.1364 16.669L21.1403 16.6654L21.1354 16.6676L8.07455 22.4397L12.2584 24.7154Z" fill="#D0DDDC" style="fill:#D0DDDC;fill:color(display-p3 0.8166 0.8651 0.8614);fill-opacity:1;"/>
<path d="M21.1364 16.669L21.1329 16.6721L16.7873 24.6345L20.3792 25.1287L21.1396 16.6736L21.1364 16.669Z" fill="#D0DDDC" style="fill:#D0DDDC;fill:color(display-p3 0.8166 0.8651 0.8614);fill-opacity:1;"/>
<path d="M30.9742 30.6609L31.5839 26.0164L21.1397 16.672L21.1396 16.6736L30.9742 30.6609Z" fill="#D0DDDC" style="fill:#D0DDDC;fill:color(display-p3 0.8166 0.8651 0.8614);fill-opacity:1;"/>
<path d="M21.1403 16.6654L30.4068 17.5373L31.7847 14.7886L21.1403 16.6654Z" fill="#D0DDDC" style="fill:#D0DDDC;fill:color(display-p3 0.8166 0.8651 0.8614);fill-opacity:1;"/>
<path d="M21.6293 2.30954L21.1403 16.6654L26.5519 1.59732L21.6293 2.30954Z" fill="#D0DDDC" style="fill:#D0DDDC;fill:color(display-p3 0.8166 0.8651 0.8614);fill-opacity:1;"/>
<path d="M21.1403 16.6654L17.7321 10.9571L15.3594 10.3805L21.1354 16.6676L21.1403 16.6654Z" fill="#D0DDDC" style="fill:#D0DDDC;fill:color(display-p3 0.8166 0.8651 0.8614);fill-opacity:1;"/>
<path d="M19.7128 29.6897L20.5132 18.7748L20.5135 18.7705L20.5139 18.7657L20.5118 18.7701L15.1431 30.6113L19.7128 29.6897Z" fill="#081AB9" style="fill:#081AB9;fill:color(display-p3 0.0314 0.1020 0.7255);fill-opacity:1;"/>
<path d="M20.5135 18.7705L20.5132 18.7748L22.9014 26.9209L25.8162 25.1135L20.519 18.7718L20.5135 18.7705Z" fill="#081AB9" style="fill:#081AB9;fill:color(display-p3 0.0314 0.1020 0.7255);fill-opacity:1;"/>
<path d="M37.229 22.6192L34.4567 19.0207L20.518 18.7706L20.519 18.7718L37.229 22.6192Z" fill="#081AB9" style="fill:#081AB9;fill:color(display-p3 0.0314 0.1020 0.7255);fill-opacity:1;"/>
<path d="M20.5139 18.7657L27.7549 13.8226L26.8428 11.0837L20.5139 18.7657Z" fill="#081AB9" style="fill:#081AB9;fill:color(display-p3 0.0314 0.1020 0.7255);fill-opacity:1;"/>
<path d="M15.1431 12.3059L20.5139 18.7657L13.9797 5.03429L15.1431 12.3059Z" fill="#081AB9" style="fill:#081AB9;fill:color(display-p3 0.0314 0.1020 0.7255);fill-opacity:1;"/>
<path d="M20.5139 18.7657L14.1281 16.8329L12.0299 17.8526L20.5118 18.7701L20.5139 18.7657Z" fill="#081AB9" style="fill:#081AB9;fill:color(display-p3 0.0314 0.1020 0.7255);fill-opacity:1;"/>
<path d="M10.2252 23.5043L20.7236 18.0644L20.7277 18.0623L20.7324 18.0598L20.7271 18.0606L6.80178 20.2006L10.2252 23.5043Z" fill="#F0D854" style="fill:#F0D854;fill:color(display-p3 0.9396 0.8479 0.3281);fill-opacity:1;"/>
<path d="M20.7277 18.0623L20.7236 18.0644L14.5709 24.6198L17.8772 26.0444L20.7297 18.0675L20.7277 18.0623Z" fill="#F0D854" style="fill:#F0D854;fill:color(display-p3 0.9396 0.8479 0.3281);fill-opacity:1;"/>
<path d="M26.6047 34.1874L28.3549 29.8562L20.7302 18.0661L20.7297 18.0675L26.6047 34.1874Z" fill="#F0D854" style="fill:#F0D854;fill:color(display-p3 0.9396 0.8479 0.3281);fill-opacity:1;"/>
<path d="M20.7324 18.0598L29.3631 21.3454L31.3703 19.0502L20.7324 18.0598Z" fill="#F0D854" style="fill:#F0D854;fill:color(display-p3 0.9396 0.8479 0.3281);fill-opacity:1;"/>
<path d="M24.8096 4.3046L20.7324 18.0598L29.6901 4.91323L24.8096 4.3046Z" fill="#F0D854" style="fill:#F0D854;fill:color(display-p3 0.9396 0.8479 0.3281);fill-opacity:1;"/>
<path d="M20.7324 18.0598L18.913 11.6408L16.7919 10.4578L20.7271 18.0606L20.7324 18.0598Z" fill="#F0D854" style="fill:#F0D854;fill:color(display-p3 0.9396 0.8479 0.3281);fill-opacity:1;"/>
<path d="M11.7086 14.6709L20.6375 17.9892L20.6419 17.9906L20.6469 17.9921L20.6426 17.989L9.45723 10.1723L11.7086 14.6709Z" fill="#0085EA" style="fill:#0085EA;fill:color(display-p3 0.0000 0.5208 0.9191);fill-opacity:1;"/>
<path d="M20.6419 17.9906L20.6375 17.9892L11.7086 18.8315L12.9911 22.1876L20.6395 17.9957L20.6419 17.9906Z" fill="#0085EA" style="fill:#0085EA;fill:color(display-p3 0.0000 0.5208 0.9191);fill-opacity:1;"/>
<path d="M13.2587 34.2076L17.5557 32.3163L20.6409 17.995L20.6395 17.9957L13.2587 34.2076Z" fill="#0085EA" style="fill:#0085EA;fill:color(display-p3 0.0000 0.5208 0.9191);fill-opacity:1;"/>
<path d="M20.6469 17.9921L24.311 26.8877L27.3379 26.6458L20.6469 17.9921Z" fill="#0085EA" style="fill:#0085EA;fill:color(display-p3 0.0000 0.5208 0.9191);fill-opacity:1;"/>
<path d="M33.2728 11.3895L20.6469 17.9921L36.2291 15.2657L33.2728 11.3895Z" fill="#0085EA" style="fill:#0085EA;fill:color(display-p3 0.0000 0.5208 0.9191);fill-opacity:1;"/>
<path d="M20.6469 17.9921L23.9582 12.528L23.3269 10.1809L20.6426 17.989L20.6469 17.9921Z" fill="#0085EA" style="fill:#0085EA;fill:color(display-p3 0.0000 0.5208 0.9191);fill-opacity:1;"/>
</svg>
